<svg width="356" height="70" viewBox="0 0 356 70" fill="none" xmlns="http://www.w3.org/2000/svg">
<path d="M16.8755 27.1706L29.8017 34.6818V49.7042L16.7008 42.193L16.8755 27.1706Z" fill="url(#paint0_linear_1072_276290)" stroke="#6326D0" stroke-width="0.158407"/>
<path d="M29.962 49.7042V34.6821L43.0635 27.1706V42.1927L29.962 49.7042Z" fill="url(#paint1_linear_1072_276290)" stroke="#6326D0" stroke-width="0.158407"/>
<path d="M29.8841 34.5368L16.9584 27.0259L29.8841 19.515L42.9845 27.0259L29.8841 34.5368Z" fill="url(#paint2_linear_1072_276290)" stroke="#6326D0" stroke-width="0.158407"/>
<path d="M0.0792033 36.8909L13.1807 44.4024V59.4244L0.0792033 51.9129V36.8909Z" fill="url(#paint3_linear_1072_276290)" stroke="#6326D0" stroke-width="0.158407"/>
<path d="M13.337 59.4235V44.4021L26.2617 36.8918V51.9132L13.337 59.4235Z" fill="url(#paint4_linear_1072_276290)" stroke="#6326D0" stroke-width="0.158407"/>
<path d="M13.2596 44.257L0.158436 36.7457L13.0833 29.2352L26.1845 36.7466L13.2596 44.257Z" fill="url(#paint5_linear_1072_276290)" stroke="#6326D0" stroke-width="0.158407"/>
<path d="M33.4894 36.8909L46.5908 44.4024V59.4244L33.4894 51.9129V36.8909Z" fill="url(#paint6_linear_1072_276290)" stroke="#6326D0" stroke-width="0.158407"/>
<path d="M46.7472 59.4235V44.4021L59.6718 36.8918V51.9132L46.7472 59.4235Z" fill="url(#paint7_linear_1072_276290)" stroke="#6326D0" stroke-width="0.158407"/>
<path d="M46.6697 44.257L33.5694 36.7461L46.6697 29.2352L59.5954 36.7461L46.6697 44.257Z" fill="url(#paint8_linear_1072_276290)" stroke="#6326D0" stroke-width="0.158407"/>
<path d="M16.8755 46.6118L29.8017 54.123V69.1454L16.7008 61.6342L16.8755 46.6118Z" fill="url(#paint9_linear_1072_276290)" stroke="#6326D0" stroke-width="0.158407"/>
<path d="M29.962 69.1454V54.1233L43.0635 46.6118V61.6339L29.962 69.1454Z" fill="url(#paint10_linear_1072_276290)" stroke="#6326D0" stroke-width="0.158407"/>
<path d="M29.8841 53.9948L16.9584 46.4839L29.8841 38.973L42.9845 46.4839L29.8841 53.9948Z" fill="url(#paint11_linear_1072_276290)" stroke="#6326D0" stroke-width="0.158407"/>
<path d="M16.8755 7.73204L29.8017 15.4179V30.4392L16.7008 22.7534L16.8755 7.73204Z" fill="url(#paint12_linear_1072_276290)" stroke="#6326D0" stroke-width="0.158407"/>
<path d="M29.962 30.439V15.418L43.0635 7.7318V22.7528L29.962 30.439Z" fill="url(#paint13_linear_1072_276290)" stroke="#6326D0" stroke-width="0.158407"/>
<path d="M29.8841 15.2895L16.9571 7.60311L29.8841 0.0914497L42.9858 7.60311L29.8841 15.2895Z" fill="url(#paint14_linear_1072_276290)" stroke="#6326D0" stroke-width="0.158407"/>
<path d="M0.0792033 17.4502L13.1807 24.9617V39.9837L0.0792033 32.4722V17.4502Z" fill="url(#paint15_linear_1072_276290)" stroke="#6326D0" stroke-width="0.158407"/>
<path d="M13.337 39.9828V24.9614L26.2617 17.4511V32.4725L13.337 39.9828Z" fill="url(#paint16_linear_1072_276290)" stroke="#6326D0" stroke-width="0.158407"/>
<path d="M13.2596 24.8163L0.158436 17.305L13.0833 9.79457L26.1845 17.3059L13.2596 24.8163Z" fill="url(#paint17_linear_1072_276290)" stroke="#6326D0" stroke-width="0.158407"/>
<path d="M32.152 28.8247L46.6505 24.9818L57.3053 35.6366L42.6322 39.4796L32.152 28.8247Z" fill="url(#paint18_linear_1072_276290)" stroke="#6326D0" stroke-width="0.158407"/>
<path d="M57.4192 35.5349L46.764 24.8797L50.6066 10.3826L61.2618 21.0377L57.4192 35.5349Z" fill="url(#paint19_linear_1072_276290)" stroke="#6326D0" stroke-width="0.158407"/>
<path d="M46.6095 24.8387L32.1115 28.6816L35.9544 14.1836L50.4523 10.3407L46.6095 24.8387Z" fill="url(#paint20_linear_1072_276290)" stroke="#6326D0" stroke-width="0.158407"/>
<path d="M16.8755 27.1882L29.8017 34.6994V49.7218L16.7008 42.2106L16.8755 27.1882Z" fill="url(#paint21_linear_1072_276290)" stroke="#6326D0" stroke-width="0.158407"/>
<path d="M29.962 49.7218V34.6997L43.0635 27.1882V42.2103L29.962 49.7218Z" fill="url(#paint22_linear_1072_276290)" stroke="#6326D0" stroke-width="0.158407"/>
<path d="M29.8841 34.5712L16.9584 27.0603L29.8841 19.5495L42.9845 27.0603L29.8841 34.5712Z" fill="url(#paint23_linear_1072_276290)" stroke="#6326D0" stroke-width="0.158407"/>
<rect x="302.798" y="48.3509" width="3.85034" height="25.7648" rx="1.92517" transform="rotate(-180 302.798 48.3509)" fill="#171717" stroke="#171717" stroke-width="0.373403"/>
<path d="M300.629 25.9432C299.701 25.9432 298.948 25.1909 298.948 24.2629C298.948 23.3349 299.701 22.5826 300.629 22.5826H324.335C324.238 24.4549 322.689 25.9432 320.793 25.9432H300.629Z" fill="#171717" stroke="#171717" stroke-width="0.373403"/>
<path d="M300.629 48.3509C299.701 48.3509 298.948 47.5986 298.948 46.6706C298.948 45.7426 299.701 44.9903 300.629 44.9903H320.793C322.689 44.9903 324.238 46.4785 324.335 48.3509H300.629Z" fill="#171717" stroke="#171717" stroke-width="0.373403"/>
<rect x="268.706" y="25.8458" width="3.231" height="24.9909" rx="1.6155" transform="rotate(-90 268.706 25.8458)" fill="#171717" stroke="#171717" stroke-width="0.373403"/>
<path d="M285.072 35.3216C286.823 35.3216 288.254 33.951 288.351 32.2241H272.123C271.268 32.2241 270.574 32.9175 270.574 33.7728C270.574 34.6282 271.268 35.3216 272.123 35.3216H285.072Z" fill="#171717" stroke="#171717" stroke-width="0.373403"/>
<path d="M294.095 48.3461C292.222 48.249 290.734 46.7001 290.734 44.8036V24.2664C290.734 23.3384 291.486 22.5861 292.414 22.5861C293.342 22.5861 294.095 23.3384 294.095 24.2664V48.3461Z" fill="#171717" stroke="#171717" stroke-width="0.373403"/>
<path d="M272.067 44.8036C272.067 46.7001 270.579 48.249 268.707 48.3461V24.2664C268.707 23.3384 269.459 22.5861 270.387 22.5861C271.315 22.5861 272.067 23.3384 272.067 24.2664V44.8036Z" fill="#171717" stroke="#171717" stroke-width="0.373403"/>
<path d="M222.949 35.4272H211.412C209.762 35.4272 208.425 34.0898 208.425 32.44V27.2579C208.425 25.6081 209.762 24.2707 211.412 24.2707H226.199" stroke="#171717" stroke-width="3.73403"/>
<path d="M210.559 46.5742L227.377 46.5742C229.027 46.5742 230.364 45.2368 230.364 43.587V38.4049C230.364 36.7551 229.027 35.4177 227.377 35.4177H211.574" stroke="#171717" stroke-width="3.73403"/>
<path d="M221.745 25.0097C221.745 25.5252 222.163 25.9432 222.679 25.9432H229.27C229.52 25.9432 229.76 25.843 229.935 25.665L230.067 25.7953L229.935 25.665L231.408 24.1714C231.989 23.5815 231.571 22.5826 230.743 22.5826H222.679C222.163 22.5826 221.745 23.0005 221.745 23.5161V25.0097Z" fill="#171717" stroke="#171717" stroke-width="0.373403"/>
<path d="M216.329 45.8285C216.329 45.3129 215.911 44.895 215.395 44.895H208.813C208.562 44.895 208.323 44.9953 208.147 45.1734L206.676 46.667C206.095 47.2571 206.513 48.2556 207.342 48.2556H215.395C215.911 48.2556 216.329 47.8376 216.329 47.3221V45.8285Z" fill="#171717" stroke="#171717" stroke-width="0.373403"/>
<path d="M127.188 35.4678C127.188 34.5398 126.436 33.7875 125.508 33.7875C124.58 33.7875 123.828 34.5398 123.828 35.4678V48.3454C125.7 48.2483 127.188 46.6994 127.188 44.8029V35.4678Z" fill="#171717" stroke="#171717" stroke-width="0.373403"/>
<path d="M135.13 23.2709C135.785 22.6159 136.847 22.6159 137.503 23.2709C138.158 23.926 138.158 24.9881 137.503 25.6432L126.66 36.4852C126.005 37.1403 124.943 37.1403 124.288 36.4852C123.633 35.8301 123.633 34.768 124.288 34.113L135.13 23.2709Z" fill="#171717" stroke="#171717" stroke-width="0.373403"/>
<path d="M115.889 23.2709C115.234 22.6159 114.172 22.6159 113.517 23.2709C112.862 23.926 112.862 24.9881 113.517 25.6432L120.551 32.6772C121.206 33.3323 122.268 33.3323 122.923 32.6772C123.578 32.0222 123.578 30.9601 122.923 30.305L115.889 23.2709Z" fill="#171717" stroke="#171717" stroke-width="0.373403"/>
<path d="M143.617 26.2628C143.714 24.4306 145.231 22.9748 147.087 22.9748H169.372C169.275 24.807 167.759 26.2628 165.903 26.2628L143.617 26.2628Z" fill="#171717" stroke="#171717" stroke-width="0.373403"/>
<path d="M154.616 48.3571C156.402 48.2602 157.82 46.7817 157.82 44.972V28.3949H154.616V48.3571Z" fill="#171717" stroke="#171717" stroke-width="0.373403"/>
<rect x="177.97" y="47.9739" width="3.73403" height="25.3914" rx="1.86702" transform="rotate(-180 177.97 47.9739)" fill="#171717" stroke="#171717" stroke-width="0.373403"/>
<path d="M175.914 25.9395C174.986 25.9395 174.234 25.1872 174.234 24.2592C174.234 23.3312 174.986 22.5789 175.914 22.5789H199.994C199.896 24.4512 198.348 25.9395 196.451 25.9395H175.914Z" fill="#171717" stroke="#171717" stroke-width="0.373403"/>
<path d="M175.914 48.3472C174.986 48.3472 174.234 47.5949 174.234 46.6669C174.234 45.7389 174.986 44.9866 175.914 44.9866H196.451C198.348 44.9866 199.896 46.4749 199.994 48.3472H175.914Z" fill="#171717" stroke="#171717" stroke-width="0.373403"/>
<path d="M179.465 37.1514C179.562 35.2791 181.111 33.7908 183.007 33.7908H195.366C195.269 35.6632 193.72 37.1514 191.824 37.1514H179.465Z" fill="#171717" stroke="#171717" stroke-width="0.373403"/>
<rect x="333.106" y="48.3472" width="3.91155" height="25.7648" rx="1.95578" transform="rotate(-180 333.106 48.3472)" fill="#171717" stroke="#171717" stroke-width="0.373403"/>
<path d="M330.875 25.9395C329.947 25.9395 329.195 25.1872 329.195 24.2592C329.195 23.3312 329.947 22.5789 330.875 22.5789H354.955C354.857 24.4512 353.309 25.9395 351.412 25.9395H330.875Z" fill="#171717" stroke="#171717" stroke-width="0.373403"/>
<path d="M330.875 48.3472C329.947 48.3472 329.195 47.5949 329.195 46.6669C329.195 45.7389 329.947 44.9866 330.875 44.9866H351.412C353.309 44.9866 354.857 46.4749 354.955 48.3472H330.875Z" fill="#171717" stroke="#171717" stroke-width="0.373403"/>
<path d="M334.539 36.7781C334.636 34.9058 336.185 33.4175 338.082 33.4175H350.439C350.342 35.2899 348.793 36.7781 346.896 36.7781H334.539Z" fill="#171717" stroke="#171717" stroke-width="0.373403"/>
<path d="M83.3123 26.5068C83.3123 25.2695 84.3154 24.2664 85.5527 24.2664H99.7339C102.076 24.2664 103.974 26.1648 103.974 28.5065C103.974 31.3204 101.693 33.6015 98.8789 33.6015H83.3123V26.5068Z" stroke="#171717" stroke-width="3.73403"/>
<mask id="path-50-inside-1_1072_276290" fill="white">
<path d="M81.4453 35.1707C81.4453 33.7271 82.6156 32.5569 84.0591 32.5569H99.5969C104.008 32.5569 107.584 36.1326 107.584 40.5436C107.584 44.9545 104.008 48.5302 99.5969 48.5302H81.4453V35.1707Z"/>
</mask>
<path d="M81.4453 35.1707C81.4453 33.7271 82.6156 32.5569 84.0591 32.5569H99.5969C104.008 32.5569 107.584 36.1326 107.584 40.5436C107.584 44.9545 104.008 48.5302 99.5969 48.5302H81.4453V35.1707Z" stroke="#171717" stroke-width="7.46807" mask="url(#path-50-inside-1_1072_276290)"/>
<path d="M238.085 48.3501C240.009 48.3092 241.556 46.737 241.556 44.8036V22.5869C239.632 22.6278 238.085 24.2 238.085 26.1334V48.3501Z" fill="#171717" stroke="#171717" stroke-width="0.373403"/>
<path d="M239.765 26.5054C239.765 25.268 240.769 24.265 242.006 24.265H256.238C259.514 24.265 262.17 26.9207 262.17 30.1967C262.17 33.4728 259.514 36.1285 256.238 36.1285H239.765V26.5054Z" stroke="#171717" stroke-width="3.73403"/>
<defs>
<linearGradient id="paint0_linear_1072_276290" x1="14.7693" y1="42.9429" x2="31.9322" y2="33.9883" gradientUnits="userSpaceOnUse">
<stop stop-color="#C097E1"/>
<stop offset="1" stop-color="#FFE8FF"/>
</linearGradient>
<linearGradient id="paint1_linear_1072_276290" x1="31.37" y1="35.1154" x2="38.2351" y2="39.5928" gradientUnits="userSpaceOnUse">
<stop stop-color="white"/>
<stop offset="1" stop-color="#C9D9F4"/>
</linearGradient>
<linearGradient id="paint2_linear_1072_276290" x1="16.7462" y1="27.0494" x2="43.1124" y2="27.0494" gradientUnits="userSpaceOnUse">
<stop stop-color="white"/>
<stop offset="1" stop-color="#C9D9F4"/>
</linearGradient>
<linearGradient id="paint3_linear_1072_276290" x1="-3.44102" y1="52.0937" x2="13.7218" y2="45.3778" gradientUnits="userSpaceOnUse">
<stop stop-color="#B149BA"/>
<stop offset="1" stop-color="#FFE8FF"/>
</linearGradient>
<linearGradient id="paint4_linear_1072_276290" x1="14.4441" y1="42.702" x2="22.5031" y2="50.9102" gradientUnits="userSpaceOnUse">
<stop stop-color="white"/>
<stop offset="1" stop-color="#C9D9F4"/>
</linearGradient>
<linearGradient id="paint5_linear_1072_276290" x1="0.0275805" y1="36.7325" x2="26.3938" y2="36.7325" gradientUnits="userSpaceOnUse">
<stop stop-color="white"/>
<stop offset="1" stop-color="#C9D9F4"/>
</linearGradient>
<linearGradient id="paint6_linear_1072_276290" x1="32.4222" y1="49.9597" x2="46.3017" y2="46.6763" gradientUnits="userSpaceOnUse">
<stop stop-color="#6D52F6"/>
<stop offset="1" stop-color="#9A9BF9"/>
</linearGradient>
<linearGradient id="paint7_linear_1072_276290" x1="47.9742" y1="44.2823" x2="60.8488" y2="53.78" gradientUnits="userSpaceOnUse">
<stop stop-color="#9C9EFA"/>
<stop offset="1" stop-color="#C9D9F4"/>
</linearGradient>
<linearGradient id="paint8_linear_1072_276290" x1="40.0406" y1="30.1374" x2="53.2232" y2="43.32" gradientUnits="userSpaceOnUse">
<stop stop-color="white"/>
<stop offset="1" stop-color="#9C9DFA"/>
</linearGradient>
<linearGradient id="paint9_linear_1072_276290" x1="15.8718" y1="61.7991" x2="31.5422" y2="53.5907" gradientUnits="userSpaceOnUse">
<stop stop-color="#5F3BF5"/>
<stop offset="1" stop-color="#ACB8FA"/>
</linearGradient>
<linearGradient id="paint10_linear_1072_276290" x1="30.233" y1="55.8447" x2="42.6202" y2="59.8743" gradientUnits="userSpaceOnUse">
<stop stop-color="white"/>
<stop offset="1" stop-color="#9EA1FA"/>
</linearGradient>
<linearGradient id="paint11_linear_1072_276290" x1="16.7462" y1="46.482" x2="43.1124" y2="46.482" gradientUnits="userSpaceOnUse">
<stop stop-color="white"/>
<stop offset="1" stop-color="#9EA0FA"/>
</linearGradient>
<linearGradient id="paint12_linear_1072_276290" x1="14.7693" y1="23.5528" x2="31.9322" y2="14.5981" gradientUnits="userSpaceOnUse">
<stop stop-color="#E197D1"/>
<stop offset="1" stop-color="#FFE8FA"/>
</linearGradient>
<linearGradient id="paint13_linear_1072_276290" x1="31.37" y1="15.725" x2="38.2351" y2="20.2024" gradientUnits="userSpaceOnUse">
<stop stop-color="white"/>
<stop offset="1" stop-color="#F8DAF9"/>
</linearGradient>
<linearGradient id="paint14_linear_1072_276290" x1="16.7462" y1="7.6757" x2="43.1124" y2="7.6757" gradientUnits="userSpaceOnUse">
<stop stop-color="white"/>
<stop offset="1" stop-color="#F2D3FA"/>
</linearGradient>
<linearGradient id="paint15_linear_1072_276290" x1="-3.44102" y1="32.7031" x2="13.7218" y2="25.9872" gradientUnits="userSpaceOnUse">
<stop stop-color="#CA7DE5"/>
<stop offset="1" stop-color="#F4D6FB"/>
</linearGradient>
<linearGradient id="paint16_linear_1072_276290" x1="14.4441" y1="23.3114" x2="22.5031" y2="31.5196" gradientUnits="userSpaceOnUse">
<stop stop-color="white"/>
<stop offset="1" stop-color="#F1CFFA"/>
</linearGradient>
<linearGradient id="paint17_linear_1072_276290" x1="0.0275805" y1="17.3419" x2="26.3938" y2="17.3419" gradientUnits="userSpaceOnUse">
<stop stop-color="white"/>
<stop offset="1" stop-color="#F0CDFA"/>
</linearGradient>
<linearGradient id="paint18_linear_1072_276290" x1="35.5812" y1="32.9112" x2="54.6841" y2="31.5679" gradientUnits="userSpaceOnUse">
<stop stop-color="#CB80E6"/>
<stop offset="1" stop-color="#F3D4FB"/>
</linearGradient>
<linearGradient id="paint19_linear_1072_276290" x1="47.546" y1="23.9329" x2="63.3655" y2="21.545" gradientUnits="userSpaceOnUse">
<stop stop-color="white"/>
<stop offset="1" stop-color="#EECBF8"/>
</linearGradient>
<linearGradient id="paint20_linear_1072_276290" x1="31.9365" y1="19.5479" x2="50.5797" y2="19.5479" gradientUnits="userSpaceOnUse">
<stop stop-color="white"/>
<stop offset="1" stop-color="#EFCBF8"/>
</linearGradient>
<linearGradient id="paint21_linear_1072_276290" x1="15.8718" y1="42.4255" x2="31.5422" y2="34.2172" gradientUnits="userSpaceOnUse">
<stop stop-color="#C572E2"/>
<stop offset="1" stop-color="#FCE8FF"/>
</linearGradient>
<linearGradient id="paint22_linear_1072_276290" x1="30.233" y1="36.4711" x2="42.6202" y2="40.5007" gradientUnits="userSpaceOnUse">
<stop stop-color="#FCFCFC"/>
<stop offset="1" stop-color="#F6D7F8"/>
</linearGradient>
<linearGradient id="paint23_linear_1072_276290" x1="16.7462" y1="27.1084" x2="43.1124" y2="27.1084" gradientUnits="userSpaceOnUse">
<stop stop-color="white"/>
<stop offset="1" stop-color="#F4D2F6"/>
</linearGradient>
</defs>
</svg>
