<svg width="280" height="280" viewBox="0 0 280 280" fill="none" xmlns="http://www.w3.org/2000/svg">
<path d="M0 20C0 8.95431 8.95431 0 20 0H260C271.046 0 280 8.95431 280 20V260C280 271.046 271.046 280 260 280H20C8.95431 280 0 271.046 0 260V20Z" fill="black"/>
<rect x="103.727" y="73.0505" width="20.153" height="98.4143" rx="10.0765" fill="white"/>
<rect x="111.633" y="96.9453" width="20.153" height="81.6195" rx="10.0765" transform="rotate(-126 111.633 96.9453)" fill="white"/>
<rect x="114.406" y="32.8008" width="16.68" height="34.7001" rx="8.33998" transform="rotate(54 114.406 32.8008)" fill="white"/>
<rect x="177.398" y="207.459" width="20.153" height="98.4143" rx="10.0765" transform="rotate(180 177.398 207.459)" fill="white"/>
<rect x="169.492" y="183.565" width="20.153" height="81.6195" rx="10.0765" transform="rotate(54 169.492 183.565)" fill="white"/>
<rect x="166.723" y="247.71" width="16.68" height="34.7001" rx="8.33998" transform="rotate(-126 166.723 247.71)" fill="white"/>
</svg>
