<svg width="1247" height="305" viewBox="0 0 1247 305" fill="none" xmlns="http://www.w3.org/2000/svg">
<g clip-path="url(#clip0_935_70623)">
<rect x="1040.83" y="201.832" width="14.9381" height="99.9594" rx="7.46905" transform="rotate(-180 1040.83 201.832)" fill="white" stroke="white" stroke-width="1.44869"/>
<path d="M1032.41 101.872H1124.38C1124 109.136 1117.99 114.91 1110.64 114.91H1032.41C1028.81 114.91 1025.89 111.992 1025.89 108.391C1025.89 104.791 1028.81 101.872 1032.41 101.872Z" fill="white" stroke="white" stroke-width="1.44869"/>
<path d="M1032.41 188.794H1110.64C1117.99 188.794 1124 194.568 1124.38 201.832H1032.41C1028.81 201.832 1025.89 198.913 1025.89 195.313C1025.89 191.712 1028.81 188.794 1032.41 188.794Z" fill="white" stroke="white" stroke-width="1.44869"/>
<rect x="908.545" y="114.513" width="12.5353" height="96.9569" rx="6.26763" transform="rotate(-90 908.545 114.513)" fill="white" stroke="white" stroke-width="1.44869"/>
<path d="M972.042 151.285C978.836 151.285 984.388 145.968 984.763 139.268H921.803C918.485 139.268 915.794 141.958 915.794 145.277C915.794 148.595 918.485 151.285 921.803 151.285H972.042Z" fill="white" stroke="white" stroke-width="1.44869"/>
<path d="M994.019 188.069V108.391C994.019 104.791 996.937 101.872 1000.54 101.872C1004.14 101.872 1007.06 104.791 1007.06 108.391V201.813C999.793 201.436 994.019 195.427 994.019 188.069Z" fill="white" stroke="white" stroke-width="1.44869"/>
<path d="M921.584 188.069C921.584 195.427 915.81 201.436 908.546 201.813V108.391C908.546 104.791 911.465 101.872 915.065 101.872C918.666 101.872 921.584 104.791 921.584 108.391V188.069Z" fill="white" stroke="white" stroke-width="1.44869"/>
<path d="M731.023 151.655H686.264C679.863 151.655 674.674 146.466 674.674 140.066V119.961C674.674 113.56 679.863 108.371 686.264 108.371H743.633" stroke="white" stroke-width="14.4869"/>
<path d="M682.949 194.939L748.199 194.939C754.6 194.939 759.789 189.75 759.789 183.35V163.245C759.789 156.844 754.6 151.655 748.199 151.655H686.89" stroke="white" stroke-width="14.4869"/>
<path d="M729.971 114.91H755.544C756.513 114.91 757.442 114.522 758.123 113.831L763.836 108.037C766.092 105.748 764.471 101.872 761.257 101.872H729.971C727.971 101.872 726.349 103.494 726.349 105.494V111.289C726.349 113.289 727.971 114.91 729.971 114.91Z" fill="white" stroke="white" stroke-width="1.44869"/>
<path d="M701.72 188.388H676.181C675.211 188.388 674.281 188.777 673.6 189.468L667.893 195.263C665.639 197.552 667.26 201.426 670.474 201.426H701.72C703.721 201.426 705.342 199.805 705.342 197.804V192.01C705.342 190.009 703.721 188.388 701.72 188.388Z" fill="white" stroke="white" stroke-width="1.44869"/>
<path d="M346.452 151.852V201.813C353.716 201.436 359.491 195.427 359.491 188.069V151.852C359.491 148.252 356.572 145.333 352.971 145.333C349.371 145.333 346.452 148.252 346.452 151.852Z" fill="white" stroke="white" stroke-width="1.44869"/>
<path d="M399.5 113.708L357.437 155.772C354.895 158.313 350.775 158.313 348.233 155.772C345.692 153.23 345.692 149.11 348.233 146.568L390.297 104.505C392.838 101.963 396.959 101.963 399.5 104.505C402.042 107.046 402.042 111.167 399.5 113.708Z" fill="white" stroke="white" stroke-width="1.44869"/>
<path d="M306.445 113.708L333.735 140.998C336.277 143.539 340.397 143.539 342.939 140.998C345.48 138.456 345.48 134.336 342.939 131.794L315.649 104.505C313.107 101.963 308.987 101.963 306.445 104.505C303.904 107.046 303.904 111.167 306.445 113.708Z" fill="white" stroke="white" stroke-width="1.44869"/>
<path d="M436.716 103.321H523.176C522.8 110.429 516.917 116.077 509.715 116.077H423.255C423.632 108.969 429.514 103.321 436.716 103.321Z" fill="white" stroke="white" stroke-width="1.44869"/>
<path d="M465.935 124.365V201.812C472.862 201.436 478.363 195.7 478.363 188.679V124.365H465.935Z" fill="white" stroke="white" stroke-width="1.44869"/>
<rect x="556.51" y="200.383" width="14.4869" height="98.5107" rx="7.24344" transform="rotate(-180 556.51 200.383)" fill="white" stroke="white" stroke-width="1.44869"/>
<path d="M548.544 101.872H641.966C641.589 109.136 635.58 114.91 628.222 114.91H548.544C544.944 114.91 542.025 111.991 542.025 108.391C542.025 104.791 544.944 101.872 548.544 101.872Z" fill="white" stroke="white" stroke-width="1.44869"/>
<path d="M548.544 188.793H628.222C635.58 188.793 641.589 194.567 641.966 201.831H548.544C544.944 201.831 542.025 198.913 542.025 195.312C542.025 191.712 544.944 188.793 548.544 188.793Z" fill="white" stroke="white" stroke-width="1.44869"/>
<path d="M576.069 145.333H624.016C623.64 152.597 617.63 158.371 610.272 158.371H562.325C562.702 151.107 568.711 145.333 576.069 145.333Z" fill="white" stroke="white" stroke-width="1.44869"/>
<rect x="1158.41" y="201.832" width="15.1756" height="99.9594" rx="7.5878" transform="rotate(-180 1158.41 201.832)" fill="white" stroke="white" stroke-width="1.44869"/>
<path d="M1149.75 101.872H1243.17C1242.8 109.136 1236.79 114.91 1229.43 114.91H1149.75C1146.15 114.91 1143.23 111.992 1143.23 108.391C1143.23 104.791 1146.15 101.872 1149.75 101.872Z" fill="white" stroke="white" stroke-width="1.44869"/>
<path d="M1149.75 188.794H1229.43C1236.79 188.794 1242.8 194.568 1243.17 201.832H1149.75C1146.15 201.832 1143.23 198.913 1143.23 195.313C1143.23 191.712 1146.15 188.794 1149.75 188.794Z" fill="white" stroke="white" stroke-width="1.44869"/>
<path d="M1177.7 143.884H1225.64C1225.27 151.148 1219.26 156.922 1211.9 156.922H1163.96C1164.33 149.658 1170.34 143.884 1177.7 143.884Z" fill="white" stroke="white" stroke-width="1.44869"/>
<path d="M197.963 108.391H252.981C262.067 108.391 269.431 115.756 269.431 124.841C269.431 135.758 260.581 144.608 249.664 144.608H189.271V117.083C189.271 112.283 193.162 108.391 197.963 108.391Z" stroke="white" stroke-width="14.4869"/>
<mask id="path-26-inside-1_935_70623" fill="white">
<path d="M182.027 150.725C182.027 145.124 186.568 140.584 192.168 140.584H252.45C269.563 140.584 283.435 154.457 283.435 171.57V171.57C283.435 188.683 269.563 202.556 252.45 202.556H182.027V150.725Z"/>
</mask>
<path d="M182.027 150.725C182.027 145.124 186.568 140.584 192.168 140.584H252.45C269.563 140.584 283.435 154.457 283.435 171.57V171.57C283.435 188.683 269.563 202.556 252.45 202.556H182.027V150.725Z" stroke="white" stroke-width="28.9737" mask="url(#path-26-inside-1_935_70623)"/>
<path d="M803.216 188.069V101.876C795.753 102.034 789.752 108.134 789.752 115.635V201.829C797.215 201.67 803.216 195.57 803.216 188.069Z" fill="white" stroke="white" stroke-width="1.44869"/>
<path d="M804.963 108.391H860.179C872.889 108.391 883.192 118.695 883.192 131.405C883.192 144.115 872.889 154.418 860.179 154.418H796.271V117.084C796.271 112.283 800.162 108.391 804.963 108.391Z" stroke="white" stroke-width="14.4869"/>
<rect x="20.7539" y="71.3291" width="24.3216" height="118.771" rx="12.1608" fill="white"/>
<rect x="30.6055" y="99.5481" width="24.3216" height="98.5026" rx="12.1608" transform="rotate(-126 30.6055 99.5481)" fill="white"/>
<rect x="33.6406" y="22.7539" width="20.1302" height="41.8779" rx="10.0651" transform="rotate(54 33.6406 22.7539)" fill="white"/>
<rect x="109.664" y="233.54" width="24.3216" height="118.771" rx="12.1608" transform="rotate(180 109.664 233.54)" fill="white"/>
<rect x="99.5078" y="205.632" width="24.3216" height="98.5026" rx="12.1608" transform="rotate(54 99.5078 205.632)" fill="white"/>
<rect x="96.7773" y="282.117" width="20.1302" height="41.8779" rx="10.0651" transform="rotate(-126 96.7773 282.117)" fill="white"/>
</g>
<defs>
<clipPath id="clip0_935_70623">
<rect width="1247" height="305" fill="white"/>
</clipPath>
</defs>
</svg>
