<svg width="356" height="70" viewBox="0 0 356 70" fill="none" xmlns="http://www.w3.org/2000/svg">
<path d="M16.8755 27.2488L29.8017 34.76V49.7823L16.7008 42.2711L16.8755 27.2488Z" fill="url(#paint0_linear_1072_276393)" stroke="#6326D0" stroke-width="0.158407"/>
<path d="M29.962 49.7823V34.7603L43.0635 27.2488V42.2708L29.962 49.7823Z" fill="url(#paint1_linear_1072_276393)" stroke="#6326D0" stroke-width="0.158407"/>
<path d="M29.8841 34.6149L16.9584 27.104L29.8841 19.5932L42.9845 27.104L29.8841 34.6149Z" fill="url(#paint2_linear_1072_276393)" stroke="#6326D0" stroke-width="0.158407"/>
<path d="M0.0792033 36.969L13.1807 44.4805V59.5025L0.0792033 51.991V36.969Z" fill="url(#paint3_linear_1072_276393)" stroke="#6326D0" stroke-width="0.158407"/>
<path d="M13.337 59.5016V44.4802L26.2617 36.9699V51.9913L13.337 59.5016Z" fill="url(#paint4_linear_1072_276393)" stroke="#6326D0" stroke-width="0.158407"/>
<path d="M13.2596 44.3351L0.158436 36.8238L13.0833 29.3134L26.1845 36.8247L13.2596 44.3351Z" fill="url(#paint5_linear_1072_276393)" stroke="#6326D0" stroke-width="0.158407"/>
<path d="M33.4894 36.969L46.5908 44.4805V59.5025L33.4894 51.991V36.969Z" fill="url(#paint6_linear_1072_276393)" stroke="#6326D0" stroke-width="0.158407"/>
<path d="M46.7472 59.5016V44.4802L59.6718 36.9699V51.9913L46.7472 59.5016Z" fill="url(#paint7_linear_1072_276393)" stroke="#6326D0" stroke-width="0.158407"/>
<path d="M46.6697 44.3351L33.5694 36.8242L46.6697 29.3134L59.5954 36.8242L46.6697 44.3351Z" fill="url(#paint8_linear_1072_276393)" stroke="#6326D0" stroke-width="0.158407"/>
<path d="M16.8755 46.6899L29.8017 54.2011V69.2235L16.7008 61.7123L16.8755 46.6899Z" fill="url(#paint9_linear_1072_276393)" stroke="#6326D0" stroke-width="0.158407"/>
<path d="M29.962 69.2235V54.2014L43.0635 46.6899V61.712L29.962 69.2235Z" fill="url(#paint10_linear_1072_276393)" stroke="#6326D0" stroke-width="0.158407"/>
<path d="M29.8841 54.0729L16.9584 46.562L29.8841 39.0512L42.9845 46.562L29.8841 54.0729Z" fill="url(#paint11_linear_1072_276393)" stroke="#6326D0" stroke-width="0.158407"/>
<path d="M16.8755 7.80992L29.8017 15.4958V30.5171L16.7008 22.8312L16.8755 7.80992Z" fill="url(#paint12_linear_1072_276393)" stroke="#6326D0" stroke-width="0.158407"/>
<path d="M29.962 30.5171V15.4961L43.0635 7.80992V22.8309L29.962 30.5171Z" fill="url(#paint13_linear_1072_276393)" stroke="#6326D0" stroke-width="0.158407"/>
<path d="M29.8841 15.3676L16.9571 7.68123L29.8841 0.169575L42.9858 7.68124L29.8841 15.3676Z" fill="url(#paint14_linear_1072_276393)" stroke="#6326D0" stroke-width="0.158407"/>
<path d="M0.0792033 17.5281L13.1807 25.0396V40.0616L0.0792033 32.5501V17.5281Z" fill="url(#paint15_linear_1072_276393)" stroke="#6326D0" stroke-width="0.158407"/>
<path d="M13.337 40.0607V25.0393L26.2617 17.529V32.5504L13.337 40.0607Z" fill="url(#paint16_linear_1072_276393)" stroke="#6326D0" stroke-width="0.158407"/>
<path d="M13.2596 24.8942L0.158436 17.3829L13.0833 9.87246L26.1845 17.3838L13.2596 24.8942Z" fill="url(#paint17_linear_1072_276393)" stroke="#6326D0" stroke-width="0.158407"/>
<path d="M32.152 28.9029L46.6505 25.0599L57.3053 35.7147L42.6322 39.5577L32.152 28.9029Z" fill="url(#paint18_linear_1072_276393)" stroke="#6326D0" stroke-width="0.158407"/>
<path d="M57.4192 35.613L46.764 24.9579L50.6066 10.4607L61.2618 21.1158L57.4192 35.613Z" fill="url(#paint19_linear_1072_276393)" stroke="#6326D0" stroke-width="0.158407"/>
<path d="M46.6095 24.9169L32.1115 28.7597L35.9544 14.2617L50.4523 10.4189L46.6095 24.9169Z" fill="url(#paint20_linear_1072_276393)" stroke="#6326D0" stroke-width="0.158407"/>
<path d="M16.8755 27.2663L29.8017 34.7775V49.7999L16.7008 42.2887L16.8755 27.2663Z" fill="url(#paint21_linear_1072_276393)" stroke="#6326D0" stroke-width="0.158407"/>
<path d="M29.962 49.7999V34.7779L43.0635 27.2663V42.2884L29.962 49.7999Z" fill="url(#paint22_linear_1072_276393)" stroke="#6326D0" stroke-width="0.158407"/>
<path d="M29.8841 34.6493L16.9584 27.1385L29.8841 19.6276L42.9845 27.1385L29.8841 34.6493Z" fill="url(#paint23_linear_1072_276393)" stroke="#6326D0" stroke-width="0.158407"/>
<rect x="302.798" y="48.4527" width="3.85034" height="25.7648" rx="1.92517" transform="rotate(-180 302.798 48.4527)" fill="white" stroke="white" stroke-width="0.373403"/>
<path d="M300.629 26.045C299.701 26.045 298.948 25.2927 298.948 24.3647C298.948 23.4367 299.701 22.6844 300.629 22.6844H324.335C324.238 24.5567 322.689 26.045 320.793 26.045H300.629Z" fill="white" stroke="white" stroke-width="0.373403"/>
<path d="M300.629 48.4527C299.701 48.4527 298.948 47.7004 298.948 46.7724C298.948 45.8444 299.701 45.0921 300.629 45.0921H320.793C322.689 45.0921 324.238 46.5804 324.335 48.4527H300.629Z" fill="white" stroke="white" stroke-width="0.373403"/>
<rect x="268.706" y="25.9476" width="3.231" height="24.9909" rx="1.6155" transform="rotate(-90 268.706 25.9476)" fill="white" stroke="white" stroke-width="0.373403"/>
<path d="M285.072 35.4234C286.823 35.4234 288.254 34.0529 288.351 32.3259H272.123C271.268 32.3259 270.574 33.0193 270.574 33.8747C270.574 34.73 271.268 35.4234 272.123 35.4234H285.072Z" fill="white" stroke="white" stroke-width="0.373403"/>
<path d="M294.095 48.4479C292.222 48.3508 290.734 46.8019 290.734 44.9054V24.3682C290.734 23.4402 291.486 22.6879 292.414 22.6879C293.342 22.6879 294.095 23.4402 294.095 24.3682V48.4479Z" fill="white" stroke="white" stroke-width="0.373403"/>
<path d="M272.067 44.9054C272.067 46.8019 270.579 48.3508 268.707 48.4479V24.3682C268.707 23.4402 269.459 22.6879 270.387 22.6879C271.315 22.6879 272.067 23.4402 272.067 24.3682V44.9054Z" fill="white" stroke="white" stroke-width="0.373403"/>
<path d="M222.949 35.5291H211.412C209.762 35.5291 208.425 34.1916 208.425 32.5418V27.3597C208.425 25.7099 209.762 24.3725 211.412 24.3725H226.199" stroke="white" stroke-width="3.73403"/>
<path d="M210.559 46.676L227.377 46.676C229.027 46.676 230.364 45.3386 230.364 43.6888V38.5067C230.364 36.8569 229.027 35.5195 227.377 35.5195H211.574" stroke="white" stroke-width="3.73403"/>
<path d="M221.745 25.1115C221.745 25.627 222.163 26.045 222.679 26.045H229.27C229.52 26.045 229.76 25.9448 229.935 25.7668L230.067 25.8971L229.935 25.7668L231.408 24.2732C231.989 23.6833 231.571 22.6844 230.743 22.6844H222.679C222.163 22.6844 221.745 23.1023 221.745 23.6179V25.1115Z" fill="white" stroke="white" stroke-width="0.373403"/>
<path d="M216.329 45.9303C216.329 45.4147 215.911 44.9968 215.395 44.9968H208.813C208.562 44.9968 208.323 45.0971 208.147 45.2752L206.676 46.7688C206.095 47.359 206.513 48.3574 207.342 48.3574H215.395C215.911 48.3574 216.329 47.9394 216.329 47.4239V45.9303Z" fill="white" stroke="white" stroke-width="0.373403"/>
<path d="M127.188 35.5826C127.188 34.6546 126.436 33.9023 125.508 33.9023C124.58 33.9023 123.828 34.6546 123.828 35.5826V48.4602C125.7 48.3631 127.188 46.8142 127.188 44.9177V35.5826Z" fill="white" stroke="white" stroke-width="0.373403"/>
<path d="M135.13 23.3857C135.785 22.7306 136.847 22.7306 137.503 23.3857C138.158 24.0408 138.158 25.1028 137.503 25.7579L126.66 36.5999C126.005 37.255 124.943 37.255 124.288 36.5999C123.633 35.9449 123.633 34.8828 124.288 34.2277L135.13 23.3857Z" fill="white" stroke="white" stroke-width="0.373403"/>
<path d="M115.889 23.3857C115.234 22.7306 114.172 22.7306 113.517 23.3857C112.862 24.0408 112.862 25.1028 113.517 25.7579L120.551 32.792C121.206 33.447 122.268 33.447 122.923 32.792C123.578 32.1369 123.578 31.0748 122.923 30.4198L115.889 23.3857Z" fill="white" stroke="white" stroke-width="0.373403"/>
<path d="M143.617 26.3697C143.714 24.5375 145.231 23.0818 147.087 23.0818H169.372C169.275 24.9139 167.759 26.3697 165.903 26.3697L143.617 26.3697Z" fill="white" stroke="white" stroke-width="0.373403"/>
<path d="M154.616 48.464C156.402 48.3671 157.82 46.8886 157.82 45.0789V28.5018H154.616V48.464Z" fill="white" stroke="white" stroke-width="0.373403"/>
<rect x="177.97" y="48.0809" width="3.73403" height="25.3914" rx="1.86702" transform="rotate(-180 177.97 48.0809)" fill="white" stroke="white" stroke-width="0.373403"/>
<path d="M175.914 26.0465C174.986 26.0465 174.234 25.2941 174.234 24.3661C174.234 23.4381 174.986 22.6858 175.914 22.6858H199.994C199.896 24.5582 198.348 26.0465 196.451 26.0465H175.914Z" fill="white" stroke="white" stroke-width="0.373403"/>
<path d="M175.914 48.4542C174.986 48.4542 174.234 47.7019 174.234 46.7739C174.234 45.8458 174.986 45.0935 175.914 45.0935H196.451C198.348 45.0935 199.896 46.5818 199.994 48.4542H175.914Z" fill="white" stroke="white" stroke-width="0.373403"/>
<path d="M179.465 37.2584C179.562 35.386 181.111 33.8977 183.007 33.8977H195.366C195.269 35.7701 193.72 37.2584 191.824 37.2584H179.465Z" fill="white" stroke="white" stroke-width="0.373403"/>
<rect x="333.106" y="48.4542" width="3.91155" height="25.7648" rx="1.95578" transform="rotate(-180 333.106 48.4542)" fill="white" stroke="white" stroke-width="0.373403"/>
<path d="M330.875 26.0465C329.947 26.0465 329.195 25.2941 329.195 24.3661C329.195 23.4381 329.947 22.6858 330.875 22.6858H354.955C354.857 24.5582 353.309 26.0465 351.412 26.0465H330.875Z" fill="white" stroke="white" stroke-width="0.373403"/>
<path d="M330.875 48.4542C329.947 48.4542 329.195 47.7019 329.195 46.7739C329.195 45.8458 329.947 45.0935 330.875 45.0935H351.412C353.309 45.0935 354.857 46.5818 354.955 48.4542H330.875Z" fill="white" stroke="white" stroke-width="0.373403"/>
<path d="M334.539 36.8851C334.636 35.0127 336.185 33.5244 338.082 33.5244H350.439C350.342 35.3968 348.793 36.8851 346.896 36.8851H334.539Z" fill="white" stroke="white" stroke-width="0.373403"/>
<path d="M83.3123 26.606C83.3123 25.3686 84.3154 24.3656 85.5527 24.3656H99.7339C102.076 24.3656 103.974 26.2639 103.974 28.6056C103.974 31.4195 101.693 33.7006 98.8789 33.7006H83.3123V26.606Z" stroke="white" stroke-width="3.73403"/>
<mask id="path-50-inside-1_1072_276393" fill="white">
<path d="M81.4453 35.2698C81.4453 33.8263 82.6156 32.656 84.0591 32.656H99.5969C104.008 32.656 107.584 36.2318 107.584 40.6427C107.584 45.0536 104.008 48.6294 99.5969 48.6294H81.4453V35.2698Z"/>
</mask>
<path d="M81.4453 35.2698C81.4453 33.8263 82.6156 32.656 84.0591 32.656H99.5969C104.008 32.656 107.584 36.2318 107.584 40.6427C107.584 45.0536 104.008 48.6294 99.5969 48.6294H81.4453V35.2698Z" stroke="white" stroke-width="7.46807" mask="url(#path-50-inside-1_1072_276393)"/>
<path d="M238.085 48.4516C240.009 48.4107 241.556 46.8386 241.556 44.9051V22.6884C239.632 22.7293 238.085 24.3015 238.085 26.235V48.4516Z" fill="white" stroke="white" stroke-width="0.373403"/>
<path d="M239.765 26.607C239.765 25.3696 240.769 24.3665 242.006 24.3665H256.238C259.514 24.3665 262.17 27.0223 262.17 30.2983C262.17 33.5743 259.514 36.2301 256.238 36.2301H239.765V26.607Z" stroke="white" stroke-width="3.73403"/>
<defs>
<linearGradient id="paint0_linear_1072_276393" x1="14.7693" y1="43.0211" x2="31.9322" y2="34.0664" gradientUnits="userSpaceOnUse">
<stop stop-color="#C097E1"/>
<stop offset="1" stop-color="#FFE8FF"/>
</linearGradient>
<linearGradient id="paint1_linear_1072_276393" x1="31.37" y1="35.1935" x2="38.2351" y2="39.6709" gradientUnits="userSpaceOnUse">
<stop stop-color="white"/>
<stop offset="1" stop-color="#C9D9F4"/>
</linearGradient>
<linearGradient id="paint2_linear_1072_276393" x1="16.7462" y1="27.1275" x2="43.1124" y2="27.1275" gradientUnits="userSpaceOnUse">
<stop stop-color="white"/>
<stop offset="1" stop-color="#C9D9F4"/>
</linearGradient>
<linearGradient id="paint3_linear_1072_276393" x1="-3.44102" y1="52.1718" x2="13.7218" y2="45.456" gradientUnits="userSpaceOnUse">
<stop stop-color="#B149BA"/>
<stop offset="1" stop-color="#FFE8FF"/>
</linearGradient>
<linearGradient id="paint4_linear_1072_276393" x1="14.4441" y1="42.7801" x2="22.5031" y2="50.9883" gradientUnits="userSpaceOnUse">
<stop stop-color="white"/>
<stop offset="1" stop-color="#C9D9F4"/>
</linearGradient>
<linearGradient id="paint5_linear_1072_276393" x1="0.0275805" y1="36.8106" x2="26.3938" y2="36.8106" gradientUnits="userSpaceOnUse">
<stop stop-color="white"/>
<stop offset="1" stop-color="#C9D9F4"/>
</linearGradient>
<linearGradient id="paint6_linear_1072_276393" x1="32.4222" y1="50.0379" x2="46.3017" y2="46.7544" gradientUnits="userSpaceOnUse">
<stop stop-color="#6D52F6"/>
<stop offset="1" stop-color="#9A9BF9"/>
</linearGradient>
<linearGradient id="paint7_linear_1072_276393" x1="47.9742" y1="44.3604" x2="60.8488" y2="53.8581" gradientUnits="userSpaceOnUse">
<stop stop-color="#9C9EFA"/>
<stop offset="1" stop-color="#C9D9F4"/>
</linearGradient>
<linearGradient id="paint8_linear_1072_276393" x1="40.0406" y1="30.2155" x2="53.2232" y2="43.3981" gradientUnits="userSpaceOnUse">
<stop stop-color="white"/>
<stop offset="1" stop-color="#9C9DFA"/>
</linearGradient>
<linearGradient id="paint9_linear_1072_276393" x1="15.8718" y1="61.8772" x2="31.5422" y2="53.6688" gradientUnits="userSpaceOnUse">
<stop stop-color="#5F3BF5"/>
<stop offset="1" stop-color="#ACB8FA"/>
</linearGradient>
<linearGradient id="paint10_linear_1072_276393" x1="30.233" y1="55.9228" x2="42.6202" y2="59.9524" gradientUnits="userSpaceOnUse">
<stop stop-color="white"/>
<stop offset="1" stop-color="#9EA1FA"/>
</linearGradient>
<linearGradient id="paint11_linear_1072_276393" x1="16.7462" y1="46.5601" x2="43.1124" y2="46.5601" gradientUnits="userSpaceOnUse">
<stop stop-color="white"/>
<stop offset="1" stop-color="#9EA0FA"/>
</linearGradient>
<linearGradient id="paint12_linear_1072_276393" x1="14.7693" y1="23.6307" x2="31.9322" y2="14.676" gradientUnits="userSpaceOnUse">
<stop stop-color="#E197D1"/>
<stop offset="1" stop-color="#FFE8FA"/>
</linearGradient>
<linearGradient id="paint13_linear_1072_276393" x1="31.37" y1="15.8031" x2="38.2351" y2="20.2805" gradientUnits="userSpaceOnUse">
<stop stop-color="white"/>
<stop offset="1" stop-color="#F8DAF9"/>
</linearGradient>
<linearGradient id="paint14_linear_1072_276393" x1="16.7462" y1="7.75383" x2="43.1124" y2="7.75383" gradientUnits="userSpaceOnUse">
<stop stop-color="white"/>
<stop offset="1" stop-color="#F2D3FA"/>
</linearGradient>
<linearGradient id="paint15_linear_1072_276393" x1="-3.44102" y1="32.7809" x2="13.7218" y2="26.0651" gradientUnits="userSpaceOnUse">
<stop stop-color="#CA7DE5"/>
<stop offset="1" stop-color="#F4D6FB"/>
</linearGradient>
<linearGradient id="paint16_linear_1072_276393" x1="14.4441" y1="23.3892" x2="22.5031" y2="31.5974" gradientUnits="userSpaceOnUse">
<stop stop-color="white"/>
<stop offset="1" stop-color="#F1CFFA"/>
</linearGradient>
<linearGradient id="paint17_linear_1072_276393" x1="0.0275805" y1="17.4198" x2="26.3938" y2="17.4198" gradientUnits="userSpaceOnUse">
<stop stop-color="white"/>
<stop offset="1" stop-color="#F0CDFA"/>
</linearGradient>
<linearGradient id="paint18_linear_1072_276393" x1="35.5812" y1="32.9893" x2="54.6841" y2="31.646" gradientUnits="userSpaceOnUse">
<stop stop-color="#CB80E6"/>
<stop offset="1" stop-color="#F3D4FB"/>
</linearGradient>
<linearGradient id="paint19_linear_1072_276393" x1="47.546" y1="24.011" x2="63.3655" y2="21.6232" gradientUnits="userSpaceOnUse">
<stop stop-color="white"/>
<stop offset="1" stop-color="#EECBF8"/>
</linearGradient>
<linearGradient id="paint20_linear_1072_276393" x1="31.9365" y1="19.6261" x2="50.5797" y2="19.6261" gradientUnits="userSpaceOnUse">
<stop stop-color="white"/>
<stop offset="1" stop-color="#EFCBF8"/>
</linearGradient>
<linearGradient id="paint21_linear_1072_276393" x1="15.8718" y1="42.5037" x2="31.5422" y2="34.2953" gradientUnits="userSpaceOnUse">
<stop stop-color="#C572E2"/>
<stop offset="1" stop-color="#FCE8FF"/>
</linearGradient>
<linearGradient id="paint22_linear_1072_276393" x1="30.233" y1="36.5493" x2="42.6202" y2="40.5789" gradientUnits="userSpaceOnUse">
<stop stop-color="#FCFCFC"/>
<stop offset="1" stop-color="#F6D7F8"/>
</linearGradient>
<linearGradient id="paint23_linear_1072_276393" x1="16.7462" y1="27.1865" x2="43.1124" y2="27.1865" gradientUnits="userSpaceOnUse">
<stop stop-color="white"/>
<stop offset="1" stop-color="#F4D2F6"/>
</linearGradient>
</defs>
</svg>
