<svg width="1247" height="305" viewBox="0 0 1247 305" fill="none" xmlns="http://www.w3.org/2000/svg">
<g clip-path="url(#clip0_935_70622)">
<rect x="1039.83" y="213.832" width="14.9381" height="99.9594" rx="7.46905" transform="rotate(-180 1039.83 213.832)" fill="black" stroke="black" stroke-width="1.44869"/>
<path d="M1031.41 113.872H1123.38C1123 121.136 1116.99 126.91 1109.64 126.91H1031.41C1027.81 126.91 1024.89 123.992 1024.89 120.391C1024.89 116.791 1027.81 113.872 1031.41 113.872Z" fill="black" stroke="black" stroke-width="1.44869"/>
<path d="M1031.41 200.794H1109.64C1116.99 200.794 1123 206.568 1123.38 213.832H1031.41C1027.81 213.832 1024.89 210.913 1024.89 207.313C1024.89 203.712 1027.81 200.794 1031.41 200.794Z" fill="black" stroke="black" stroke-width="1.44869"/>
<rect x="907.545" y="126.513" width="12.5353" height="96.9569" rx="6.26763" transform="rotate(-90 907.545 126.513)" fill="black" stroke="black" stroke-width="1.44869"/>
<path d="M971.042 163.285C977.836 163.285 983.388 157.968 983.763 151.268H920.803C917.485 151.268 914.794 153.958 914.794 157.277C914.794 160.595 917.485 163.285 920.803 163.285H971.042Z" fill="black" stroke="black" stroke-width="1.44869"/>
<path d="M993.019 200.069V120.391C993.019 116.791 995.937 113.872 999.538 113.872C1003.14 113.872 1006.06 116.791 1006.06 120.391V213.813C998.793 213.436 993.019 207.427 993.019 200.069Z" fill="black" stroke="black" stroke-width="1.44869"/>
<path d="M920.584 200.069C920.584 207.427 914.81 213.436 907.546 213.813V120.391C907.546 116.791 910.465 113.872 914.065 113.872C917.666 113.872 920.584 116.791 920.584 120.391V200.069Z" fill="black" stroke="black" stroke-width="1.44869"/>
<path d="M730.023 163.655H685.264C678.863 163.655 673.674 158.466 673.674 152.066V131.961C673.674 125.56 678.863 120.371 685.264 120.371H742.633" stroke="black" stroke-width="14.4869"/>
<path d="M681.949 206.939L747.199 206.939C753.6 206.939 758.789 201.75 758.789 195.35V175.245C758.789 168.844 753.6 163.655 747.199 163.655H685.89" stroke="black" stroke-width="14.4869"/>
<path d="M728.971 126.91H754.544C755.513 126.91 756.442 126.522 757.123 125.831L762.836 120.037C765.092 117.748 763.471 113.872 760.257 113.872H728.971C726.971 113.872 725.349 115.494 725.349 117.494V123.289C725.349 125.289 726.971 126.91 728.971 126.91Z" fill="black" stroke="black" stroke-width="1.44869"/>
<path d="M700.72 200.388H675.181C674.211 200.388 673.281 200.777 672.6 201.468L666.893 207.263C664.639 209.552 666.26 213.426 669.474 213.426H700.72C702.721 213.426 704.342 211.805 704.342 209.804V204.01C704.342 202.009 702.721 200.388 700.72 200.388Z" fill="black" stroke="black" stroke-width="1.44869"/>
<path d="M345.452 163.852V213.813C352.716 213.436 358.491 207.427 358.491 200.069V163.852C358.491 160.252 355.572 157.333 351.971 157.333C348.371 157.333 345.452 160.252 345.452 163.852Z" fill="black" stroke="black" stroke-width="1.44869"/>
<path d="M398.5 125.708L356.437 167.772C353.895 170.313 349.775 170.313 347.233 167.772C344.692 165.23 344.692 161.11 347.233 158.568L389.297 116.505C391.838 113.963 395.959 113.963 398.5 116.505C401.042 119.046 401.042 123.167 398.5 125.708Z" fill="black" stroke="black" stroke-width="1.44869"/>
<path d="M305.445 125.708L332.735 152.998C335.277 155.539 339.397 155.539 341.939 152.998C344.48 150.456 344.48 146.336 341.939 143.794L314.649 116.505C312.107 113.963 307.987 113.963 305.445 116.505C302.904 119.046 302.904 123.167 305.445 125.708Z" fill="black" stroke="black" stroke-width="1.44869"/>
<path d="M435.716 115.321H522.176C521.8 122.429 515.917 128.077 508.715 128.077H422.255C422.632 120.969 428.514 115.321 435.716 115.321Z" fill="black" stroke="black" stroke-width="1.44869"/>
<path d="M464.935 136.365V213.812C471.862 213.436 477.363 207.7 477.363 200.679V136.365H464.935Z" fill="black" stroke="black" stroke-width="1.44869"/>
<rect x="555.51" y="212.383" width="14.4869" height="98.5107" rx="7.24344" transform="rotate(-180 555.51 212.383)" fill="black" stroke="black" stroke-width="1.44869"/>
<path d="M547.544 113.872H640.966C640.589 121.136 634.58 126.91 627.222 126.91H547.544C543.944 126.91 541.025 123.991 541.025 120.391C541.025 116.791 543.944 113.872 547.544 113.872Z" fill="black" stroke="black" stroke-width="1.44869"/>
<path d="M547.544 200.793H627.222C634.58 200.793 640.589 206.567 640.966 213.831H547.544C543.944 213.831 541.025 210.913 541.025 207.312C541.025 203.712 543.944 200.793 547.544 200.793Z" fill="black" stroke="black" stroke-width="1.44869"/>
<path d="M575.069 157.333H623.016C622.64 164.597 616.63 170.371 609.272 170.371H561.325C561.702 163.107 567.711 157.333 575.069 157.333Z" fill="black" stroke="black" stroke-width="1.44869"/>
<rect x="1157.41" y="213.832" width="15.1756" height="99.9594" rx="7.5878" transform="rotate(-180 1157.41 213.832)" fill="black" stroke="black" stroke-width="1.44869"/>
<path d="M1148.75 113.872H1242.17C1241.8 121.136 1235.79 126.91 1228.43 126.91H1148.75C1145.15 126.91 1142.23 123.992 1142.23 120.391C1142.23 116.791 1145.15 113.872 1148.75 113.872Z" fill="black" stroke="black" stroke-width="1.44869"/>
<path d="M1148.75 200.794H1228.43C1235.79 200.794 1241.8 206.568 1242.17 213.832H1148.75C1145.15 213.832 1142.23 210.913 1142.23 207.313C1142.23 203.712 1145.15 200.794 1148.75 200.794Z" fill="black" stroke="black" stroke-width="1.44869"/>
<path d="M1176.7 155.884H1224.64C1224.27 163.148 1218.26 168.922 1210.9 168.922H1162.96C1163.33 161.658 1169.34 155.884 1176.7 155.884Z" fill="black" stroke="black" stroke-width="1.44869"/>
<path d="M196.963 120.391H251.981C261.067 120.391 268.431 127.756 268.431 136.841C268.431 147.758 259.581 156.608 248.664 156.608H188.271V129.083C188.271 124.283 192.162 120.391 196.963 120.391Z" stroke="black" stroke-width="14.4869"/>
<mask id="path-26-inside-1_935_70622" fill="white">
<path d="M181.027 162.725C181.027 157.124 185.568 152.584 191.168 152.584H251.45C268.563 152.584 282.435 166.457 282.435 183.57V183.57C282.435 200.683 268.563 214.556 251.45 214.556H181.027V162.725Z"/>
</mask>
<path d="M181.027 162.725C181.027 157.124 185.568 152.584 191.168 152.584H251.45C268.563 152.584 282.435 166.457 282.435 183.57V183.57C282.435 200.683 268.563 214.556 251.45 214.556H181.027V162.725Z" stroke="black" stroke-width="28.9737" mask="url(#path-26-inside-1_935_70622)"/>
<path d="M802.216 200.069V113.876C794.753 114.034 788.752 120.134 788.752 127.635V213.829C796.215 213.67 802.216 207.57 802.216 200.069Z" fill="black" stroke="black" stroke-width="1.44869"/>
<path d="M803.963 120.391H859.179C871.889 120.391 882.192 130.695 882.192 143.405C882.192 156.115 871.889 166.418 859.179 166.418H795.271V129.084C795.271 124.283 799.162 120.391 803.963 120.391Z" stroke="black" stroke-width="14.4869"/>
<rect x="19.7539" y="83.3291" width="24.3216" height="118.771" rx="12.1608" fill="black"/>
<rect x="29.6055" y="111.548" width="24.3216" height="98.5026" rx="12.1608" transform="rotate(-126 29.6055 111.548)" fill="black"/>
<rect x="32.6406" y="34.7539" width="20.1302" height="41.8779" rx="10.0651" transform="rotate(54 32.6406 34.7539)" fill="black"/>
<rect x="108.664" y="245.54" width="24.3216" height="118.771" rx="12.1608" transform="rotate(180 108.664 245.54)" fill="black"/>
<rect x="98.5078" y="217.632" width="24.3216" height="98.5026" rx="12.1608" transform="rotate(54 98.5078 217.632)" fill="black"/>
<rect x="95.7773" y="294.117" width="20.1302" height="41.8779" rx="10.0651" transform="rotate(-126 95.7773 294.117)" fill="black"/>
</g>
<defs>
<clipPath id="clip0_935_70622">
<rect width="1247" height="305" fill="white"/>
</clipPath>
</defs>
</svg>
