<svg width="62" height="70" viewBox="0 0 62 70" fill="none" xmlns="http://www.w3.org/2000/svg">
<path d="M16.8755 27.1706L29.8017 34.6818V49.7042L16.7008 42.193L16.8755 27.1706Z" fill="url(#paint0_linear_1164_269476)" stroke="#6326D0" stroke-width="0.158407"/>
<path d="M29.962 49.7042V34.6821L43.0635 27.1706V42.1927L29.962 49.7042Z" fill="url(#paint1_linear_1164_269476)" stroke="#6326D0" stroke-width="0.158407"/>
<path d="M29.8841 34.5368L16.9584 27.0259L29.8841 19.515L42.9845 27.0259L29.8841 34.5368Z" fill="url(#paint2_linear_1164_269476)" stroke="#6326D0" stroke-width="0.158407"/>
<path d="M0.0792033 36.8909L13.1807 44.4024V59.4244L0.0792033 51.9129V36.8909Z" fill="url(#paint3_linear_1164_269476)" stroke="#6326D0" stroke-width="0.158407"/>
<path d="M13.337 59.4235V44.4021L26.2617 36.8918V51.9132L13.337 59.4235Z" fill="url(#paint4_linear_1164_269476)" stroke="#6326D0" stroke-width="0.158407"/>
<path d="M13.2596 44.257L0.158436 36.7457L13.0833 29.2352L26.1845 36.7466L13.2596 44.257Z" fill="url(#paint5_linear_1164_269476)" stroke="#6326D0" stroke-width="0.158407"/>
<path d="M33.4894 36.8909L46.5908 44.4024V59.4244L33.4894 51.9129V36.8909Z" fill="url(#paint6_linear_1164_269476)" stroke="#6326D0" stroke-width="0.158407"/>
<path d="M46.7472 59.4235V44.4021L59.6718 36.8918V51.9132L46.7472 59.4235Z" fill="url(#paint7_linear_1164_269476)" stroke="#6326D0" stroke-width="0.158407"/>
<path d="M46.6697 44.257L33.5694 36.7461L46.6697 29.2352L59.5954 36.7461L46.6697 44.257Z" fill="url(#paint8_linear_1164_269476)" stroke="#6326D0" stroke-width="0.158407"/>
<path d="M16.8755 46.6118L29.8017 54.123V69.1454L16.7008 61.6342L16.8755 46.6118Z" fill="url(#paint9_linear_1164_269476)" stroke="#6326D0" stroke-width="0.158407"/>
<path d="M29.962 69.1454V54.1233L43.0635 46.6118V61.6339L29.962 69.1454Z" fill="url(#paint10_linear_1164_269476)" stroke="#6326D0" stroke-width="0.158407"/>
<path d="M29.8841 53.9948L16.9584 46.4839L29.8841 38.973L42.9845 46.4839L29.8841 53.9948Z" fill="url(#paint11_linear_1164_269476)" stroke="#6326D0" stroke-width="0.158407"/>
<path d="M16.8755 7.73179L29.8017 15.4177V30.439L16.7008 22.7531L16.8755 7.73179Z" fill="url(#paint12_linear_1164_269476)" stroke="#6326D0" stroke-width="0.158407"/>
<path d="M29.962 30.439V15.418L43.0635 7.7318V22.7528L29.962 30.439Z" fill="url(#paint13_linear_1164_269476)" stroke="#6326D0" stroke-width="0.158407"/>
<path d="M29.8841 15.2895L16.9571 7.60311L29.8841 0.0914497L42.9858 7.60311L29.8841 15.2895Z" fill="url(#paint14_linear_1164_269476)" stroke="#6326D0" stroke-width="0.158407"/>
<path d="M0.0792033 17.4499L13.1807 24.9614V39.9835L0.0792033 32.472V17.4499Z" fill="url(#paint15_linear_1164_269476)" stroke="#6326D0" stroke-width="0.158407"/>
<path d="M13.337 39.9826V24.9611L26.2617 17.4509V32.4723L13.337 39.9826Z" fill="url(#paint16_linear_1164_269476)" stroke="#6326D0" stroke-width="0.158407"/>
<path d="M13.2596 24.8161L0.158436 17.3047L13.0833 9.79433L26.1845 17.3057L13.2596 24.8161Z" fill="url(#paint17_linear_1164_269476)" stroke="#6326D0" stroke-width="0.158407"/>
<path d="M32.152 28.8247L46.6505 24.9818L57.3053 35.6366L42.6322 39.4796L32.152 28.8247Z" fill="url(#paint18_linear_1164_269476)" stroke="#6326D0" stroke-width="0.158407"/>
<path d="M57.4192 35.5349L46.764 24.8797L50.6066 10.3826L61.2618 21.0377L57.4192 35.5349Z" fill="url(#paint19_linear_1164_269476)" stroke="#6326D0" stroke-width="0.158407"/>
<path d="M46.6095 24.8387L32.1115 28.6816L35.9544 14.1836L50.4523 10.3407L46.6095 24.8387Z" fill="url(#paint20_linear_1164_269476)" stroke="#6326D0" stroke-width="0.158407"/>
<path d="M16.8755 27.1882L29.8017 34.6994V49.7218L16.7008 42.2106L16.8755 27.1882Z" fill="url(#paint21_linear_1164_269476)" stroke="#6326D0" stroke-width="0.158407"/>
<path d="M29.962 49.7218V34.6997L43.0635 27.1882V42.2103L29.962 49.7218Z" fill="url(#paint22_linear_1164_269476)" stroke="#6326D0" stroke-width="0.158407"/>
<path d="M29.8841 34.5712L16.9584 27.0603L29.8841 19.5495L42.9845 27.0603L29.8841 34.5712Z" fill="url(#paint23_linear_1164_269476)" stroke="#6326D0" stroke-width="0.158407"/>
<defs>
<linearGradient id="paint0_linear_1164_269476" x1="14.7693" y1="42.9429" x2="31.9322" y2="33.9883" gradientUnits="userSpaceOnUse">
<stop stop-color="#C097E1"/>
<stop offset="1" stop-color="#FFE8FF"/>
</linearGradient>
<linearGradient id="paint1_linear_1164_269476" x1="31.37" y1="35.1154" x2="38.2351" y2="39.5928" gradientUnits="userSpaceOnUse">
<stop stop-color="white"/>
<stop offset="1" stop-color="#C9D9F4"/>
</linearGradient>
<linearGradient id="paint2_linear_1164_269476" x1="16.7462" y1="27.0494" x2="43.1124" y2="27.0494" gradientUnits="userSpaceOnUse">
<stop stop-color="white"/>
<stop offset="1" stop-color="#C9D9F4"/>
</linearGradient>
<linearGradient id="paint3_linear_1164_269476" x1="-3.44102" y1="52.0937" x2="13.7218" y2="45.3778" gradientUnits="userSpaceOnUse">
<stop stop-color="#B149BA"/>
<stop offset="1" stop-color="#FFE8FF"/>
</linearGradient>
<linearGradient id="paint4_linear_1164_269476" x1="14.4441" y1="42.702" x2="22.5031" y2="50.9102" gradientUnits="userSpaceOnUse">
<stop stop-color="white"/>
<stop offset="1" stop-color="#C9D9F4"/>
</linearGradient>
<linearGradient id="paint5_linear_1164_269476" x1="0.0275805" y1="36.7325" x2="26.3938" y2="36.7325" gradientUnits="userSpaceOnUse">
<stop stop-color="white"/>
<stop offset="1" stop-color="#C9D9F4"/>
</linearGradient>
<linearGradient id="paint6_linear_1164_269476" x1="32.4222" y1="49.9597" x2="46.3017" y2="46.6763" gradientUnits="userSpaceOnUse">
<stop stop-color="#6D52F6"/>
<stop offset="1" stop-color="#9A9BF9"/>
</linearGradient>
<linearGradient id="paint7_linear_1164_269476" x1="47.9742" y1="44.2823" x2="60.8488" y2="53.78" gradientUnits="userSpaceOnUse">
<stop stop-color="#9C9EFA"/>
<stop offset="1" stop-color="#C9D9F4"/>
</linearGradient>
<linearGradient id="paint8_linear_1164_269476" x1="40.0406" y1="30.1374" x2="53.2232" y2="43.32" gradientUnits="userSpaceOnUse">
<stop stop-color="white"/>
<stop offset="1" stop-color="#9C9DFA"/>
</linearGradient>
<linearGradient id="paint9_linear_1164_269476" x1="15.8718" y1="61.7991" x2="31.5422" y2="53.5907" gradientUnits="userSpaceOnUse">
<stop stop-color="#5F3BF5"/>
<stop offset="1" stop-color="#ACB8FA"/>
</linearGradient>
<linearGradient id="paint10_linear_1164_269476" x1="30.233" y1="55.8447" x2="42.6202" y2="59.8743" gradientUnits="userSpaceOnUse">
<stop stop-color="white"/>
<stop offset="1" stop-color="#9EA1FA"/>
</linearGradient>
<linearGradient id="paint11_linear_1164_269476" x1="16.7462" y1="46.482" x2="43.1124" y2="46.482" gradientUnits="userSpaceOnUse">
<stop stop-color="white"/>
<stop offset="1" stop-color="#9EA0FA"/>
</linearGradient>
<linearGradient id="paint12_linear_1164_269476" x1="14.7693" y1="23.5525" x2="31.9322" y2="14.5979" gradientUnits="userSpaceOnUse">
<stop stop-color="#E197D1"/>
<stop offset="1" stop-color="#FFE8FA"/>
</linearGradient>
<linearGradient id="paint13_linear_1164_269476" x1="31.37" y1="15.725" x2="38.2351" y2="20.2024" gradientUnits="userSpaceOnUse">
<stop stop-color="white"/>
<stop offset="1" stop-color="#F8DAF9"/>
</linearGradient>
<linearGradient id="paint14_linear_1164_269476" x1="16.7462" y1="7.6757" x2="43.1124" y2="7.6757" gradientUnits="userSpaceOnUse">
<stop stop-color="white"/>
<stop offset="1" stop-color="#F2D3FA"/>
</linearGradient>
<linearGradient id="paint15_linear_1164_269476" x1="-3.44102" y1="32.7028" x2="13.7218" y2="25.987" gradientUnits="userSpaceOnUse">
<stop stop-color="#CA7DE5"/>
<stop offset="1" stop-color="#F4D6FB"/>
</linearGradient>
<linearGradient id="paint16_linear_1164_269476" x1="14.4441" y1="23.3111" x2="22.5031" y2="31.5193" gradientUnits="userSpaceOnUse">
<stop stop-color="white"/>
<stop offset="1" stop-color="#F1CFFA"/>
</linearGradient>
<linearGradient id="paint17_linear_1164_269476" x1="0.0275805" y1="17.3416" x2="26.3938" y2="17.3416" gradientUnits="userSpaceOnUse">
<stop stop-color="white"/>
<stop offset="1" stop-color="#F0CDFA"/>
</linearGradient>
<linearGradient id="paint18_linear_1164_269476" x1="35.5812" y1="32.9112" x2="54.6841" y2="31.5679" gradientUnits="userSpaceOnUse">
<stop stop-color="#CB80E6"/>
<stop offset="1" stop-color="#F3D4FB"/>
</linearGradient>
<linearGradient id="paint19_linear_1164_269476" x1="47.546" y1="23.9329" x2="63.3655" y2="21.545" gradientUnits="userSpaceOnUse">
<stop stop-color="white"/>
<stop offset="1" stop-color="#EECBF8"/>
</linearGradient>
<linearGradient id="paint20_linear_1164_269476" x1="31.9365" y1="19.5479" x2="50.5797" y2="19.5479" gradientUnits="userSpaceOnUse">
<stop stop-color="white"/>
<stop offset="1" stop-color="#EFCBF8"/>
</linearGradient>
<linearGradient id="paint21_linear_1164_269476" x1="15.8718" y1="42.4255" x2="31.5422" y2="34.2172" gradientUnits="userSpaceOnUse">
<stop stop-color="#C572E2"/>
<stop offset="1" stop-color="#FCE8FF"/>
</linearGradient>
<linearGradient id="paint22_linear_1164_269476" x1="30.233" y1="36.4711" x2="42.6202" y2="40.5007" gradientUnits="userSpaceOnUse">
<stop stop-color="#FCFCFC"/>
<stop offset="1" stop-color="#F6D7F8"/>
</linearGradient>
<linearGradient id="paint23_linear_1164_269476" x1="16.7462" y1="27.1084" x2="43.1124" y2="27.1084" gradientUnits="userSpaceOnUse">
<stop stop-color="white"/>
<stop offset="1" stop-color="#F4D2F6"/>
</linearGradient>
</defs>
</svg>
